<?xml version="1.0" standalone="no"?>
<!DOCTYPE svg PUBLIC "-//W3C//DTD SVG 20010904//EN"
 "http://www.w3.org/TR/2001/REC-SVG-20010904/DTD/svg10.dtd">
<svg version="1.0" xmlns="http://www.w3.org/2000/svg"
 width="640.000000pt" height="640.000000pt" viewBox="0 0 640.000000 640.000000"
 preserveAspectRatio="xMidYMid meet">
<metadata>
Created by potrace 1.14, written by Peter Selinger 2001-2017
</metadata>
<g transform="translate(0.000000,640.000000) scale(0.100000,-0.100000)"
fill="#000000" stroke="none">
<path d="M2988 4795 c-1 -2 -32 -6 -68 -9 -128 -11 -177 -18 -300 -41 -69 -13
-134 -26 -145 -29 -52 -12 -105 -26 -155 -41 -30 -9 -62 -18 -70 -20 -55 -14
-225 -78 -345 -130 -133 -57 -431 -224 -505 -282 -8 -6 -69 -52 -135 -101
-309 -233 -588 -540 -788 -872 -32 -52 -62 -102 -67 -110 -11 -17 -119 -236
-143 -290 -50 -109 -140 -368 -139 -400 0 -3 -4 -12 -9 -21 -4 -9 -10 -27 -13
-40 -3 -13 -15 -64 -26 -112 -11 -48 -23 -105 -26 -125 -2 -20 -9 -59 -14 -87
-5 -27 -12 -77 -16 -110 -3 -33 -8 -73 -10 -90 -2 -16 -6 -87 -10 -156 l-6
-125 3202 0 3202 0 -6 120 c-9 169 -14 213 -40 391 -3 18 -19 103 -30 162 -3
13 -18 73 -35 135 -180 672 -567 1265 -1101 1688 -36 29 -74 59 -85 68 -96 78
-332 222 -500 304 -158 78 -428 183 -518 202 -12 3 -49 12 -81 21 -69 19 -226
53 -276 61 -19 2 -44 6 -55 9 -11 2 -49 7 -85 10 -36 4 -76 9 -90 12 -28 5
-506 13 -512 8z"/>
</g>
</svg>
